<svg width="104" height="104" viewBox="0 0 104 104" fill="none" xmlns="http://www.w3.org/2000/svg">
<path fill-rule="evenodd" clip-rule="evenodd" d="M104 0H0V104H104V0ZM54.1667 28.5502V78.91L54.1732 78.9143L54.1948 78.923H54.1992L54.2165 78.9187C64.8527 74.1022 74.1303 71.3722 86.5497 73.6385C86.5674 73.6421 86.5856 73.6418 86.6032 73.6377C86.6208 73.6336 86.6372 73.6257 86.6515 73.6147C86.6573 73.6104 86.6624 73.6053 86.6667 73.5995V22.8302C74.4077 19.7643 65.6868 23.1248 54.1667 28.5502ZM91 23.7987V22.802C91 20.8845 89.7238 19.1317 87.7847 18.642C74.4597 15.2923 64.7573 18.8413 53.6445 24.0088C53.1028 24.1215 52.5547 24.2342 52 24.3555C51.4453 24.2342 50.895 24.1215 50.3533 24.0088C39.2427 18.8413 29.5403 15.2923 16.2153 18.6442C15.2929 18.8801 14.4756 19.4173 13.8932 20.1705C13.3107 20.9237 12.9964 21.8499 13 22.802V23.7987C12.1203 23.9915 11.2233 24.1995 10.3068 24.4205C9.83843 24.5343 9.42195 24.8024 9.12444 25.1817C8.82693 25.561 8.66568 26.0293 8.66667 26.5113V81.8458C8.66667 83.2173 9.92983 84.24 11.2753 83.9843C24.7368 81.4168 33.8087 81.237 46.2063 83.1177C46.7501 84.1869 47.5792 85.0847 48.6018 85.7118C49.6243 86.339 50.8005 86.6709 52 86.6709C53.1995 86.6709 54.3757 86.339 55.3982 85.7118C56.4208 85.0847 57.2499 84.1869 57.7937 83.1177C70.1892 81.237 79.2653 81.4168 92.7247 83.9843C93.0408 84.0454 93.3665 84.0362 93.6787 83.9571C93.9909 83.8781 94.2818 83.7314 94.5308 83.5272C94.7798 83.3231 94.9808 83.0666 95.1195 82.776C95.2582 82.4854 95.3312 82.1678 95.3333 81.8458V26.5113C95.3343 26.0293 95.1731 25.561 94.8756 25.1817C94.578 24.8024 94.1616 24.5343 93.6932 24.4205C92.7976 24.2042 91.8998 23.9969 91 23.7987ZM49.8333 28.5502C38.3132 23.1248 29.5923 19.7643 17.3333 22.8302V73.5973L17.3377 73.6017L17.3398 73.606L17.3485 73.6125C17.3628 73.6242 17.3796 73.6327 17.3976 73.6371C17.4156 73.6416 17.4343 73.6421 17.4525 73.6385C29.8675 71.37 39.1473 74.1 49.7835 78.9143C49.7887 78.9179 49.7946 78.9201 49.8008 78.9208C49.8093 78.9198 49.8197 78.9168 49.8268 78.9122L49.8333 78.9078V28.5502ZM23.855 62.8398C31.8067 62.7575 36.2418 63.5592 44.681 67.0063L46.319 62.9937C37.3772 59.3428 32.37 58.4177 23.8117 58.5065L23.855 62.8398ZM44.681 58.3397C36.2418 54.8947 31.8067 54.0908 23.855 54.1732L23.8117 49.8398C32.37 49.751 37.375 50.6762 46.319 54.327L44.681 58.3397ZM23.855 45.5065C31.8067 45.4242 36.2418 46.2258 44.681 49.673L46.319 45.6603C37.3772 42.0095 32.37 41.0843 23.8117 41.1732L23.855 45.5065ZM29.25 34.6667V28.1667H24.9167V34.6667H29.25ZM36.8333 30.3333V36.8333H32.5V30.3333H36.8333ZM44.4167 39V32.5H40.0833V39H44.4167ZM80.145 62.8398C72.1933 62.7575 67.7582 63.5592 59.319 67.0063L57.681 62.9937C66.6228 59.3428 71.63 58.4177 80.1883 58.5065L80.145 62.8398ZM59.319 58.3397C67.7582 54.8947 72.1955 54.0908 80.145 54.1732L80.1883 49.8398C71.63 49.751 66.625 50.6762 57.681 54.327L59.319 58.3397ZM80.145 45.5065C72.1933 45.4242 67.7582 46.2258 59.319 49.673L57.681 45.6603C66.6228 42.0095 71.63 41.0843 80.1883 41.1732L80.145 45.5065ZM74.75 34.6667V28.1667H79.0833V34.6667H74.75ZM67.1667 30.3333V36.8333H71.5V30.3333H67.1667ZM59.5833 39V32.5H63.9167V39H59.5833Z" fill="#2A1570"/>
</svg>
