<svg width="40" height="94" viewBox="0 0 40 94" fill="#000" xmlns="http://www.w3.org/2000/svg">
<path d="M20.014 0.825012C20.9998 0.825012 21.9759 1.01929 22.8866 1.39674C23.7973 1.77419 24.6247 2.32741 25.3215 3.02478C26.0182 3.72215 26.5707 4.55 26.9474 5.46101C27.324 6.37202 27.5175 7.34833 27.5166 8.33414C27.5173 9.31981 27.3237 10.2959 26.9469 11.2068C26.5702 12.1176 26.0176 12.9452 25.3209 13.6424C24.6241 14.3396 23.7968 14.8927 22.8863 15.2701C21.9757 15.6474 20.9997 15.8416 20.014 15.8416C19.0278 15.8421 18.0512 15.6482 17.14 15.2711C16.2288 14.894 15.4008 14.3411 14.7033 13.6439C14.0058 12.9467 13.4525 12.1189 13.075 11.2079C12.6975 10.2968 12.5032 9.32031 12.5032 8.33414C12.503 7.34791 12.6972 6.3713 13.0746 5.46014C13.452 4.54898 14.0053 3.72113 14.7028 3.02391C15.4003 2.32669 16.2284 1.77376 17.1397 1.39674C18.0511 1.01972 19.0278 0.825997 20.014 0.826638M38.8575 44.31C37.2634 37.7369 35.6368 31.1784 34.015 24.6183C32.9961 20.4583 30.0175 17.7153 26.4945 17.6698V17.6665H13.6115C10.0511 17.6665 7.03837 20.429 6.00487 24.6183C4.3815 31.1784 2.75812 37.7369 1.164 44.3084C0.933922 45.2724 0.80324 46.2574 0.773997 47.248C0.751247 48.4294 1.3265 49.2386 2.21212 49.6839C3.14975 50.1535 4.01587 49.887 4.64962 48.9933C5.04775 48.4278 5.337 47.6868 5.51087 46.9604C6.92462 41.2355 8.27175 35.4863 9.68387 29.7598C10.2364 27.5433 9.78462 27.8098 11.8565 27.7935C13.0297 27.7886 13.0492 27.826 12.734 29.2073C10.5565 38.8338 8.37575 48.4586 6.20637 58.0884C5.9025 59.4371 5.60187 60.8021 5.28337 62.2728H11.4535V89.1178C11.4535 91.3294 12.9566 93.1218 14.7929 93.1218C16.6389 93.1218 18.1355 91.3294 18.1355 89.1178V62.2776H21.9461V89.1194C21.9461 91.331 23.4444 93.1218 25.2887 93.1218C27.1315 93.1218 28.6265 91.331 28.6265 89.1194V62.2776H34.7398C34.4424 60.8797 34.1358 59.4838 33.82 58.09C31.6425 48.4635 29.4617 38.837 27.2859 29.2138C26.9755 27.8293 26.9966 27.7903 28.1666 27.7984C30.2369 27.8098 29.7851 27.5465 30.3376 29.7646C31.7498 35.4895 33.1034 41.2404 34.509 46.9636C34.6861 47.6884 34.9754 48.431 35.3735 48.9981C36.0089 49.8886 36.8734 50.1551 37.8061 49.6855C38.695 49.2419 39.2719 48.4359 39.2491 47.2529C39.2238 46.2604 39.0936 45.2735 38.8607 44.3084M5.78875 17.6243C5.31262 17.9119 4.48875 16.75 4.07112 15.1461C3.65675 13.5374 4.30187 12.1496 4.77637 11.8636C5.25087 11.5728 11.5055 9.58539 11.9247 11.1909C12.3375 12.7996 6.26 17.3448 5.7855 17.6259M34.2344 17.6503C34.7105 17.9363 35.5344 16.776 35.9536 15.1705C36.368 13.5618 35.7196 12.174 35.2468 11.8896C34.7723 11.6004 28.5192 9.61301 28.0984 11.2185C27.6791 12.8256 33.7615 17.3724 34.2376 17.6503" fill="white"/>
</svg>
