<svg width="104" height="104" viewBox="0 0 104 104" fill="none" xmlns="http://www.w3.org/2000/svg">
<path fill-rule="evenodd" clip-rule="evenodd" d="M104 0H0V104H104V0ZM53.248 90.6035L53.2567 90.5992L53.2783 90.584L53.3433 90.5342L53.599 90.35C53.8157 90.1897 54.132 89.9557 54.5307 89.648C55.328 89.037 56.459 88.1378 57.8088 86.983C61.3522 83.9543 64.6655 80.6664 67.7213 77.1463C74.8887 68.8567 82.3333 57.0245 82.3333 43.498C82.3333 35.4163 79.1397 27.6597 73.4543 21.9397C70.6442 19.1087 67.302 16.8614 63.62 15.3272C59.938 13.7929 55.9889 13.002 52 13C48.0113 13.0017 44.0623 13.7923 40.3803 15.3262C36.6983 16.86 33.3559 19.1069 30.5457 21.9375C24.8548 27.6706 21.6628 35.4221 21.6667 43.5002C21.6667 57.0245 29.1113 68.8567 36.2787 77.1463C39.3345 80.6664 42.6478 83.9543 46.1912 86.983C47.5432 88.1378 48.672 89.037 49.4693 89.648C49.8604 89.9494 50.2555 90.2455 50.6545 90.5363L50.7238 90.584L50.7433 90.5992L50.752 90.6035C51.4995 91.13 52.5005 91.13 53.248 90.6035ZM52 54.1667C54.8732 54.1667 57.6287 53.0253 59.6603 50.9937C61.692 48.962 62.8333 46.2065 62.8333 43.3333C62.8333 40.4602 61.692 37.7047 59.6603 35.673C57.6287 33.6414 54.8732 32.5 52 32.5C49.1268 32.5 46.3713 33.6414 44.3397 35.673C42.308 37.7047 41.1667 40.4602 41.1667 43.3333C41.1667 46.2065 42.308 48.962 44.3397 50.9937C46.3713 53.0253 49.1268 54.1667 52 54.1667Z" fill="#2A1570"/>
</svg>
